<?xml version="1.0" standalone="no"?>
<!DOCTYPE svg PUBLIC "-//W3C//DTD SVG 20010904//EN"
 "http://www.w3.org/TR/2001/REC-SVG-20010904/DTD/svg10.dtd">
<svg version="1.0" xmlns="http://www.w3.org/2000/svg"
 width="140.000000pt" height="140.000000pt" viewBox="0 0 140.000000 140.000000"
 preserveAspectRatio="xMidYMid meet">
<metadata>
Created by potrace 1.11, written by Peter Selinger 2001-2013
</metadata>
<g transform="translate(0.000000,140.000000) scale(0.100000,-0.100000)"
fill="#000000" stroke="none">
<path d="M633 933 c-35 -2 -63 -8 -63 -13 0 -6 0 -13 0 -17 -1 -5 13 -10 29
-13 l30 -5 -75 -165 c-42 -91 -86 -192 -99 -225 l-23 -60 -6 35 c-6 39 -46
351 -49 390 -2 20 3 25 28 30 18 3 31 12 33 23 3 16 -6 17 -115 15 -95 -2
-118 -6 -118 -18 0 -8 11 -17 25 -20 24 -6 26 -11 70 -278 l45 -272 50 0 50 0
126 273 c103 225 129 273 147 275 12 2 22 1 22 -2 0 -10 80 -501 85 -523 5
-20 12 -23 53 -23 l48 0 126 273 c117 251 129 272 155 277 16 3 29 13 31 23 3
15 -7 17 -92 17 -89 0 -96 -1 -96 -20 0 -16 7 -20 30 -20 17 0 30 -2 30 -4 0
-3 -38 -88 -84 -189 -46 -102 -89 -202 -96 -222 -7 -20 -13 -35 -15 -33 -4 4
-55 398 -55 426 0 18 6 22 30 22 23 0 30 4 30 20 0 18 -7 20 -62 20 -35 0 -85
2 -113 4 -27 2 -78 1 -112 -1z"/>
</g>
</svg>
